<?xml version="1.0" encoding="UTF-8"?>
<svg version="1.1" xmlns="http://www.w3.org/2000/svg" width="2000" height="1500">
<path d="M0 0 C660 0 1320 0 2000 0 C2000 495 2000 990 2000 1500 C1340 1500 680 1500 0 1500 C0 1005 0 510 0 0 Z " fill="#9BD8FE" transform="translate(0,0)"/>
<path d="M0 0 C51.15 0 102.3 0 155 0 C156.65 12.87 158.3 25.74 160 39 C161.47779514 49.29977876 161.47779514 49.29977876 162.96875 59.59765625 C164.25825043 68.67578964 165.37469143 77.7753626 166.5 86.875 C168.98319325 106.93950107 171.58311036 126.98401059 174.40625 147.00390625 C174.9169405 150.62756565 175.42740533 154.25125667 175.9375 157.875 C176.12972641 159.24023804 176.12972641 159.24023804 176.32583618 160.63305664 C178.20576407 174.0128594 179.96987133 187.40307846 181.625 200.8125 C181.77980835 202.0663298 181.77980835 202.0663298 181.93774414 203.3454895 C182.14317294 205.00991128 182.34858697 206.67433488 182.5539856 208.33876038 C182.65347504 209.14478195 182.75296448 209.95080353 182.85546875 210.78125 C182.95342743 211.57506577 183.05138611 212.36888153 183.15231323 213.18675232 C185.07403196 228.71884566 187.17854014 244.22668812 189.37109375 259.72265625 C189.87288892 263.27336804 190.3741754 266.82415119 190.875 270.375 C191.00187195 271.27392975 191.1287439 272.1728595 191.25946045 273.09902954 C193.48487804 288.90834972 195.49369358 304.73978549 197.4418335 320.58538818 C199.08501052 333.93271908 200.84523844 347.25169442 202.80252075 360.55639648 C204.8803605 374.71958799 206.63746672 388.91793282 208.38424683 403.12524414 C210.06839431 416.80235171 211.86799 430.45195915 213.86862183 444.08621216 C215.71794614 456.71169523 217.32543092 469.36030126 218.88015747 482.02514648 C220.15096997 492.36674442 221.48365622 502.69085648 223 513 C224.65642778 524.27363568 226.10213926 535.56705272 227.5 546.875 C229.98293621 566.93953055 232.58314326 586.98401122 235.40625 607.00390625 C235.91688888 610.6275729 236.42730578 614.25127072 236.9375 617.875 C237.12972641 619.23924103 237.12972641 619.23924103 237.32583618 620.63104248 C239.33205772 634.89740165 241.18159078 649.17798924 242.93673706 663.47723389 C244.18857538 673.66817911 245.50685868 683.84091647 247 694 C248.72108753 705.71012721 250.22589403 717.44271703 251.6875 729.1875 C251.79618408 730.05979248 251.90486816 730.93208496 252.0168457 731.83081055 C252.32878402 734.33888953 252.63941452 736.84712532 252.94921875 739.35546875 C253.08646614 740.46476997 253.08646614 740.46476997 253.22648621 741.59648132 C253.85636403 746.72697122 254.4364106 751.86180076 255 757 C255.99 757 256.98 757 258 757 C258.08636719 755.81792969 258.17273438 754.63585937 258.26171875 753.41796875 C259.17193463 741.92134761 260.56639286 730.53132077 262.25 719.125 C264.36816546 704.77268946 266.23326463 690.39967876 268 676 C269.80870873 661.28052527 271.71556378 646.58682156 273.86862183 631.91378784 C275.71794614 619.28830477 277.32543092 606.63969874 278.88015747 593.97485352 C280.15096997 583.63325558 281.48365622 573.30914352 283 563 C284.65642778 551.72636432 286.10213926 540.43294728 287.5 529.125 C289.98293621 509.06046945 292.58314326 489.01598878 295.40625 468.99609375 C295.91688888 465.3724271 296.42730578 461.74872928 296.9375 458.125 C297.06565094 457.21550598 297.19380188 456.30601196 297.32583618 455.36895752 C299.33205772 441.10259835 301.18159078 426.82201076 302.93673706 412.52276611 C304.18857551 402.33181981 305.50692234 392.15909283 307 382 C308.65628373 370.72634088 310.10213878 359.43295115 311.5 348.125 C313.98293618 328.0604697 316.58313014 308.01598678 319.40625 287.99609375 C319.91690973 284.37243003 320.42734528 280.74873486 320.9375 277.125 C321.06631561 276.21052094 321.19513123 275.29604187 321.32785034 274.35385132 C323.28541924 260.42882466 325.09315663 246.49104546 326.80197144 232.5335083 C328.51110187 218.59868594 330.41256269 204.69688127 332.38323975 190.79684448 C334.37608658 176.72063189 336.20537101 162.63058783 337.93701172 148.52001953 C339.32380621 137.23067984 340.82780732 125.96901483 342.4831543 114.71533203 C343.94763076 104.64002615 345.19697818 94.54222052 346.4375 84.4375 C348.2151493 69.96365608 350.15799397 55.5234158 352.2565918 41.09277344 C352.46020183 39.69206865 352.66373518 38.29135271 352.8671875 36.890625 C352.96500015 36.2173114 353.06281281 35.5439978 353.16358948 34.85028076 C354.21849309 27.55057759 355.17392628 20.23864304 356.10009766 12.92163086 C356.20628418 12.08510986 356.3124707 11.24858887 356.421875 10.38671875 C356.51049805 9.67733154 356.59912109 8.96794434 356.69042969 8.23706055 C357.07152537 5.48313334 357.54294276 2.74234346 358 0 C404.53 0 451.06 0 499 0 C493.80035971 41.5971223 493.80035971 41.5971223 490.6484375 57.390625 C489.79812709 62.12367814 489.28302759 66.86838195 488.76904297 71.64746094 C488.15494135 77.15798269 487.18820317 82.54535638 486.10546875 87.98046875 C485.16732038 92.80387803 484.52493205 97.61546278 484 102.5 C483.32965434 108.73762316 482.330755 114.82977441 481.10546875 120.98046875 C480.16731488 125.8039063 479.52524677 130.61548295 479 135.5 C478.33596192 141.64566196 477.36719473 147.65782675 476.17358398 153.7277832 C473.98092752 165.05127792 472.60394379 176.51920377 471.0625 187.9453125 C469.38887018 200.30041973 467.616539 212.6142814 465.50024414 224.90161133 C463.95731886 233.97618065 462.72708611 243.08518756 461.50219727 252.20727539 C460.3144166 260.95937406 458.93034749 269.66193953 457.43408203 278.3659668 C456.11687516 286.09754032 455.03115197 293.8475736 454.00366211 301.62231445 C453.31192381 306.82295033 452.50987342 311.97200011 451.51953125 317.125 C450.51438045 322.68733824 449.73723679 328.28782167 448.91015625 333.87890625 C448.24269009 338.38862973 447.56019654 342.89587586 446.87109375 347.40234375 C445.08310312 359.10197467 443.3010176 370.80153773 441.63671875 382.51953125 C441.52517456 383.30479691 441.41363037 384.09006256 441.29870605 384.89912415 C440.76173118 388.68684078 440.22846141 392.47504337 439.69970703 396.26391602 C438.75213453 403.01512597 437.71942371 409.73015303 436.45776367 416.43017578 C435.65573069 420.93268199 435.08808779 425.46549156 434.5 430 C433.65006909 436.39466768 432.74619733 442.74600726 431.52734375 449.08203125 C429.64880306 459.47662309 428.25995271 469.96907782 426.87280273 480.43847656 C425.73727439 489.0021599 424.39923012 497.44986881 422.74609375 505.9296875 C420.74483176 516.52154226 419.50310079 527.26671274 418.0625 537.9453125 C416.38887018 550.30041973 414.616539 562.6142814 412.50024414 574.90161133 C410.95731886 583.97618065 409.72708611 593.08518756 408.50219727 602.20727539 C407.3144166 610.95937406 405.93034749 619.66193953 404.43408203 628.3659668 C403.11687516 636.09754032 402.03115197 643.8475736 401.00366211 651.62231445 C400.31192381 656.82295033 399.50987342 661.97200011 398.51953125 667.125 C397.51438045 672.68733824 396.73723679 678.28782167 395.91015625 683.87890625 C395.24269009 688.38862973 394.56019654 692.89587586 393.87109375 697.40234375 C392.08310312 709.10197467 390.3010176 720.80153773 388.63671875 732.51953125 C388.52517456 733.30479691 388.41363037 734.09006256 388.29870605 734.89912415 C387.76173118 738.68684078 387.22846141 742.47504337 386.69970703 746.26391602 C385.75213453 753.01512597 384.71942371 759.73015303 383.45776367 766.43017578 C382.65573069 770.93268199 382.08808779 775.46549156 381.5 780 C380.65006909 786.39466768 379.74619733 792.74600726 378.52734375 799.08203125 C376.64873962 809.4769741 375.26017389 819.96975968 373.87255859 830.43945312 C372.90060835 837.77175402 371.87645673 845.05594294 370.4375 852.3125 C369.37695257 857.70315819 368.58928634 863.04385092 368 868.5 C367.33564436 874.64563787 366.3672011 880.65779433 365.17358398 886.7277832 C362.98092752 898.05127792 361.60394379 909.51920377 360.0625 920.9453125 C358.33232177 933.71604125 356.52088331 946.4525743 354.30688477 959.1496582 C354.15018311 960.05417725 353.99348145 960.95869629 353.83203125 961.890625 C353.69514893 962.66438477 353.5582666 963.43814453 353.41723633 964.23535156 C352.8277983 968.14102517 352.43619367 972.07425694 352 976 C284.35 976 216.7 976 147 976 C146.01 969.4 145.02 962.8 144 956 C143.32444046 951.9346221 142.64115538 947.87279627 141.9375 943.8125 C140.64011471 936.20507673 139.5375471 928.621177 138.71850586 920.94848633 C138.12347546 915.56839258 137.16113348 910.31997764 136.10522461 905.01757812 C134.92419646 898.947556 134.23504958 892.87008322 133.625 886.71875 C133.16239657 882.75678267 132.4156992 878.87543839 131.65234375 874.9609375 C129.75089572 865.13780348 128.39204472 855.24252874 127.01037598 845.33529663 C126.25038243 839.8877959 125.47834735 834.44200093 124.70703125 828.99609375 C124.5575705 827.93910782 124.40810974 826.88212189 124.25411987 825.79310608 C122.7310765 815.04845893 121.08912642 804.32441128 119.40429688 793.60400391 C118.74606949 789.36447896 118.12574437 785.11941611 117.5 780.875 C116.59733685 774.7652793 115.61326269 768.67463973 114.56982422 762.58740234 C112.5722607 750.92309254 110.89876329 739.23920517 109.39477539 727.50244141 C108.4246654 719.96868435 107.30303935 712.48316885 106 705 C103.58888881 691.00851536 101.40260968 677.01271217 99.50268555 662.94189453 C97.96280007 651.58005722 96.22288942 640.25408962 94.45263672 628.92626953 C93.78020016 624.57900707 93.14135597 620.22693318 92.5 615.875 C91.4114227 608.50304628 90.18943275 601.15832331 88.9375 593.8125 C87.64223439 586.20469633 86.53755875 578.62128614 85.71850586 570.94848633 C85.12347546 565.56839258 84.16113348 560.31997764 83.10522461 555.01757812 C81.92419646 548.947556 81.23504958 542.87008322 80.625 536.71875 C80.16239657 532.75678267 79.4156992 528.87543839 78.65234375 524.9609375 C76.75089572 515.13780348 75.39204472 505.24252874 74.01037598 495.33529663 C73.25038243 489.8877959 72.47834735 484.44200093 71.70703125 478.99609375 C71.5575705 477.93910782 71.40810974 476.88212189 71.25411987 475.79310608 C69.7310765 465.04845893 68.08912642 454.32441128 66.40429688 443.60400391 C65.74606949 439.36447896 65.12574437 435.11941611 64.5 430.875 C63.59733685 424.7652793 62.61326269 418.67463973 61.56982422 412.58740234 C59.5722607 400.92309254 57.89876329 389.23920517 56.39477539 377.50244141 C55.4246654 369.96868435 54.30303935 362.48316885 53 355 C50.58888881 341.00851536 48.40260968 327.01271217 46.50268555 312.94189453 C44.96280007 301.58005722 43.22288942 290.25408962 41.45263672 278.92626953 C40.78020016 274.57900707 40.14135597 270.22693318 39.5 265.875 C38.4114227 258.50304628 37.18943275 251.15832331 35.9375 243.8125 C34.64223439 236.20469633 33.53755875 228.62128614 32.71850586 220.94848633 C32.12347546 215.56839258 31.16113348 210.31997764 30.10522461 205.01757812 C28.92419646 198.947556 28.23504958 192.87008322 27.625 186.71875 C27.16239657 182.75678267 26.4156992 178.87543839 25.65234375 174.9609375 C23.75089572 165.13780348 22.39204472 155.24252874 21.01037598 145.33529663 C20.25038243 139.8877959 19.47834735 134.44200093 18.70703125 128.99609375 C18.5575705 127.93910782 18.40810974 126.88212189 18.25411987 125.79310608 C16.7310765 115.04845893 15.08912642 104.32441128 13.40429688 93.60400391 C12.74606939 89.36447834 12.12580492 85.11940763 11.5 80.875 C10.44696124 73.75390604 9.27281626 66.65840135 8.0625 59.5625 C6.29190791 49.14770349 4.80005559 38.70456386 3.39477539 28.23461914 C3.24129639 27.09114014 3.08781738 25.94766113 2.9296875 24.76953125 C2.70490723 23.09431396 2.70490723 23.09431396 2.47558594 21.38525391 C1.84005793 16.8615212 1.11422487 12.35371724 0.37158203 7.84643555 C0 5 0 5 0 0 Z " fill="#000000" transform="translate(736,261)"/>
<path d="M0 0 C8.91 0 17.82 0 27 0 C25.87603306 12.36363636 25.87603306 12.36363636 25.203125 16.75 C24.97592773 18.25373169 24.97592773 18.25373169 24.74414062 19.7878418 C24.58107422 20.847854 24.41800781 21.90786621 24.25 23 C23.05522802 30.89537748 21.8781462 38.79186563 20.765625 46.69921875 C20.66191086 47.43587769 20.55819672 48.17253662 20.45133972 48.93151855 C20.24037484 50.43023654 20.02941192 51.9289548 19.81845093 53.42767334 C18.1805957 65.05040259 16.44319119 76.63973258 14.44921875 88.20776367 C12.92264159 97.18025173 11.71319721 106.18912801 10.50195312 115.20874023 C9.31434519 123.96036284 7.93026338 132.66242882 6.43408203 141.3659668 C5.11663454 149.0989527 4.02976501 156.85031969 3.00366211 164.62670898 C2.32228834 169.75597834 1.52077753 174.82667535 0.53125 179.90625 C-0.27246849 184.58672825 -0.87353257 189.29296564 -1.5 194 C-2.35216935 200.39443414 -3.25377555 206.74586631 -4.47265625 213.08203125 C-6.18256602 222.54353199 -7.48866249 232.09135033 -8.75390625 241.62109375 C-8.87902588 242.56106201 -9.00414551 243.50103027 -9.13305664 244.46948242 C-9.36687401 246.24123626 -9.59693398 248.01349291 -9.82202148 249.78637695 C-10.48718865 254.84485421 -11.33978749 259.83271452 -12.3203125 264.83984375 C-14.6566503 276.91974899 -16.30736916 289.116952 -18.07993698 301.28931427 C-18.47752618 304.01550066 -18.87770831 306.74130381 -19.27792263 309.46710587 C-21.08458689 321.77292755 -22.87753382 334.0807033 -24.62890625 346.39453125 C-24.74524414 347.21236588 -24.86158203 348.0302005 -24.98144531 348.87281799 C-25.49313466 352.47621986 -26.00145097 356.0800453 -26.50341797 359.68481445 C-27.24895285 364.99145252 -28.02330375 370.2757071 -29.01171875 375.54296875 C-30.20181116 381.89323202 -31.02766329 388.28401236 -31.875 394.6875 C-33.25804338 404.94838957 -34.81120686 415.1593474 -36.56542969 425.36279297 C-37.88292129 433.09686002 -38.97009429 440.84925335 -39.99633789 448.62670898 C-40.67771166 453.75597834 -41.47922247 458.82667535 -42.46875 463.90625 C-43.27246764 468.58672334 -43.87363444 473.29295584 -44.5 478 C-45.34357545 484.33934425 -46.24568365 490.62784275 -47.46875 496.90625 C-48.27246764 501.58672334 -48.87363444 506.29295584 -49.5 511 C-50.34357545 517.33934425 -51.24568365 523.62784275 -52.46875 529.90625 C-53.27246764 534.58672334 -53.87363444 539.29295584 -54.5 544 C-55.34357545 550.33934425 -56.24568365 556.62784275 -57.46875 562.90625 C-58.27246849 567.58672825 -58.87353257 572.29296564 -59.5 577 C-60.34650368 583.35192058 -61.23068917 589.66439706 -62.45288086 595.95654297 C-63.1220138 599.67872557 -63.67310211 603.41504425 -64.22265625 607.15625 C-65.51324067 615.84873831 -66.85470945 624.53292283 -68.21238327 633.21512985 C-68.56258978 635.45524839 -68.91219969 637.69545928 -69.2616272 639.93569946 C-71.26126631 652.7544231 -71.26126631 652.7544231 -72.16333008 658.50097656 C-74.86403343 675.7123705 -77.48571181 692.92105 -79.68516541 710.20480347 C-80.46387394 716.27144541 -81.37075761 722.27690322 -82.50318909 728.28741455 C-83.39177642 733.13909757 -84.10718049 738.01729365 -84.83984375 742.89453125 C-85.09127892 744.55750496 -85.09127892 744.55750496 -85.34779358 746.2540741 C-85.70069281 748.59105375 -86.05276676 750.92815816 -86.40405273 753.26538086 C-86.93038325 756.76517769 -87.46010876 760.26444814 -87.99023438 763.76367188 C-89.76578059 775.52374133 -91.48951506 787.28738347 -93.05223083 799.07783508 C-93.71505277 804.05535292 -94.50846563 808.97679023 -95.46875 813.90625 C-96.27246764 818.58672334 -96.87363444 823.29295584 -97.5 828 C-98.34357545 834.33934425 -99.24568365 840.62784275 -100.46875 846.90625 C-101.27246764 851.58672334 -101.87363444 856.29295584 -102.5 861 C-103.34357545 867.33934425 -104.24568365 873.62784275 -105.46875 879.90625 C-106.27246764 884.58672334 -106.87363444 889.29295584 -107.5 894 C-108.34357545 900.33934425 -109.24568365 906.62784275 -110.46875 912.90625 C-111.42983685 918.50316751 -112.12919643 924.14037901 -112.859375 929.77148438 C-113.57858755 935.23202748 -114.46238504 940.63186375 -115.47363281 946.04541016 C-116.48793747 951.73887721 -117.29199091 957.46522747 -118.125 963.1875 C-119.053125 969.5296875 -119.053125 969.5296875 -120 976 C-128.91 976 -137.82 976 -147 976 C-147 965.88888889 -147 965.88888889 -146.265625 961.890625 C-146.10578125 960.98650879 -145.9459375 960.08239258 -145.78125 959.15087891 C-145.6059375 958.19358887 -145.430625 957.23629883 -145.25 956.25 C-143.6415641 947.06324603 -142.24228366 937.86830705 -141 928.625 C-139.30176877 916.03806063 -137.41698923 903.48796459 -135.45703125 890.93945312 C-134.77052879 886.5241275 -134.10079055 882.10636623 -133.4375 877.6875 C-133.31826172 876.89335693 -133.19902344 876.09921387 -133.07617188 875.28100586 C-132.03250578 868.2897262 -131.04439251 861.29079577 -130.05444336 854.29174805 C-129.29227269 848.93949361 -128.44983543 843.60904548 -127.53125 838.28125 C-126.78897274 833.69659635 -126.147812 829.09882384 -125.5 824.5 C-124.59514246 818.07640739 -123.63349875 811.67429275 -122.53125 805.28125 C-121.64975284 799.8367087 -120.89868035 794.37309863 -120.140625 788.91015625 C-118.954987 780.44315442 -117.52144673 772.0225534 -116.0703125 763.59765625 C-113.97960789 751.40700362 -112.15772672 739.19911158 -110.50268555 726.94189453 C-108.96280007 715.58005722 -107.22288942 704.25408962 -105.45263672 692.92626953 C-104.78020016 688.57900707 -104.14135597 684.22693318 -103.5 679.875 C-102.4114227 672.50304628 -101.18943275 665.15832331 -99.9375 657.8125 C-98.54134301 649.61210605 -97.41768861 641.43976272 -96.5234375 633.17163086 C-96.07972422 629.40282078 -95.40435267 625.71384542 -94.65625 621.9921875 C-92.74856658 612.15992367 -91.39342204 602.25240485 -90.01037598 592.33529663 C-89.25038243 586.8877959 -88.47834735 581.44200093 -87.70703125 575.99609375 C-87.5575705 574.93910782 -87.40810974 573.88212189 -87.25411987 572.79310608 C-85.73172552 562.05303757 -84.09180281 551.33319093 -82.40869141 540.6171875 C-81.73603835 536.30963629 -81.08465844 531.99894607 -80.4375 527.6875 C-80.31802002 526.89174561 -80.19854004 526.09599121 -80.07543945 525.27612305 C-79.03202644 518.28646996 -78.04416197 511.28916587 -77.05444336 504.29174805 C-76.29227269 498.93949361 -75.44983543 493.60904548 -74.53125 488.28125 C-73.78897274 483.69659635 -73.147812 479.09882384 -72.5 474.5 C-71.59514246 468.07640739 -70.63349875 461.67429275 -69.53125 455.28125 C-68.64975284 449.8367087 -67.89868035 444.37309863 -67.140625 438.91015625 C-65.954987 430.44315442 -64.52144673 422.0225534 -63.0703125 413.59765625 C-60.97960789 401.40700362 -59.15772672 389.19911158 -57.50268555 376.94189453 C-55.96280007 365.58005722 -54.22288942 354.25408962 -52.45263672 342.92626953 C-51.78020016 338.57900707 -51.14135597 334.22693318 -50.5 329.875 C-49.4114227 322.50304628 -48.18943275 315.15832331 -46.9375 307.8125 C-45.54134301 299.61210605 -44.41768861 291.43976272 -43.5234375 283.17163086 C-43.07972422 279.40282078 -42.40435267 275.71384542 -41.65625 271.9921875 C-39.74856658 262.15992367 -38.39342204 252.25240485 -37.01037598 242.33529663 C-36.25038243 236.8877959 -35.47834735 231.44200093 -34.70703125 225.99609375 C-34.5575705 224.93910782 -34.40810974 223.88212189 -34.25411987 222.79310608 C-32.73172552 212.05303757 -31.09180281 201.33319093 -29.40869141 190.6171875 C-28.73603835 186.30963629 -28.08465844 181.99894607 -27.4375 177.6875 C-27.25828003 176.49386841 -27.25828003 176.49386841 -27.07543945 175.27612305 C-26.03202644 168.28646996 -25.04416197 161.28916587 -24.05444336 154.29174805 C-23.29227269 148.93949361 -22.44983543 143.60904548 -21.53125 138.28125 C-20.78897274 133.69659635 -20.147812 129.09882384 -19.5 124.5 C-18.59514246 118.07640739 -17.63349875 111.67429275 -16.53125 105.28125 C-15.78897274 100.69659635 -15.147812 96.09882384 -14.5 91.5 C-13.59514246 85.07640739 -12.63349875 78.67429275 -11.53125 72.28125 C-10.64975284 66.8367087 -9.89868035 61.37309863 -9.140625 55.91015625 C-8.20838978 49.25278086 -7.12366312 42.62749229 -6 36 C-5.66603451 34.00010546 -5.3326986 32.00010569 -5 30 C-3.33333333 20 -1.66666667 10 0 0 Z " fill="#0DA1FD" transform="translate(1235,261)"/>
<path d="M0 0 C8.91 0 17.82 0 27 0 C29.39085915 15.58485964 31.56975394 31.165466 33.5 46.8125 C34.1425076 52.01563371 34.1425076 52.01563371 34.78515625 57.21875 C34.88939911 58.06282913 34.99364197 58.90690826 35.1010437 59.77656555 C37.07426523 75.71511903 39.24018147 91.62770639 41.4765625 107.53125 C41.60594711 108.45151978 41.73533173 109.37178955 41.86863708 110.31994629 C41.99924026 111.24883667 42.12984344 112.17772705 42.2644043 113.13476562 C42.53045857 115.0273406 42.79649044 116.91991873 43.0625 118.8125 C43.1938736 119.74682861 43.32524719 120.68115723 43.46060181 121.64379883 C45.07685314 133.15616369 46.62317368 144.66875125 47.96166992 156.21728516 C49.22451905 167.08349026 50.70347256 177.91961209 52.16470337 188.76060486 C52.86430197 193.96250965 53.54782661 199.16642926 54.2265625 204.37109375 C56.0770268 218.55050229 57.93117441 232.72541032 60 246.875 C61.90246101 259.9176849 63.52552356 272.99090027 65.14233398 286.07128906 C66.85051659 299.8823639 68.66104607 313.67723599 70.52490234 327.46826172 C70.99723594 330.97945277 71.46270664 334.4914829 71.92578125 338.00390625 C73.4037964 349.19864445 74.90704938 360.38859494 76.48046875 371.5703125 C76.60960663 372.48811493 76.73874451 373.40591736 76.87179565 374.35153198 C77.13591746 376.22819121 77.40004715 378.10484932 77.66418457 379.98150635 C79.54998357 393.38466524 81.40125243 406.78280456 82.96386719 420.22827148 C84.88391972 436.71428772 87.17284554 453.15479564 89.484375 469.58984375 C89.67771172 470.96469688 89.67771172 470.96469688 89.87495422 472.36732483 C90.0699073 473.75352272 90.0699073 473.75352272 90.26879883 475.16772461 C90.53339487 477.04931233 90.79796186 478.93090414 91.0625 480.8125 C91.19369232 481.74546906 91.32488464 482.67843811 91.46005249 483.63967896 C93.07648342 495.1534175 94.62301422 506.66737539 95.96166992 518.21728516 C97.22451905 529.08349026 98.70347256 539.91961209 100.16470337 550.76060486 C100.86430197 555.96250964 101.54782802 561.16642909 102.2265625 566.37109375 C104.24271733 581.82042201 106.28692152 597.26039469 108.54638672 612.67651367 C109.46204171 618.99639229 110.30043968 625.32071634 111.06640625 631.66015625 C111.19980156 632.7584375 111.19980156 632.7584375 111.33589172 633.87890625 C111.768976 637.45450223 112.19377084 641.03079381 112.60571289 644.60888672 C112.75903076 645.89166504 112.91234863 647.17444336 113.0703125 648.49609375 C113.20195801 649.63232178 113.33360352 650.7685498 113.46923828 651.93920898 C113.85956881 654.96403786 113.85956881 654.96403786 115.10327148 657.40600586 C116.3625358 661.04871845 115.80224456 664.27632734 115.27734375 668.0078125 C115.1269313 669.18691193 115.1269313 669.18691193 114.97348022 670.38983154 C114.64080399 672.97005162 114.28939865 675.5473372 113.9375 678.125 C113.701777 679.92191456 113.46700622 681.71895426 113.2331543 683.51611328 C111.49342052 696.77584958 109.60646614 710.01581228 107.67456055 723.2487793 C106.38321395 732.11835026 105.23819698 740.9823007 104.359375 749.90234375 C104.07308274 752.37005854 103.69153356 754.62136302 103 757 C102.01 757 101.02 757 100 757 C98.60185834 751.13866741 97.55007681 745.33871272 96.8515625 739.35546875 C96.75434906 738.55691971 96.65713562 737.75837067 96.55697632 736.93562317 C96.35000852 735.23423428 96.14485764 733.53262351 95.94140625 731.83081055 C95.40108922 727.31691202 94.84566208 722.80488452 94.2890625 718.29296875 C94.17870667 717.39746307 94.06835083 716.5019574 93.95465088 715.57931519 C93.06017891 708.3724623 92.06079611 701.18428516 91 694 C89.38199417 682.99690794 87.97955409 671.97531399 86.625 660.9375 C84.88606447 646.77100809 83.00348734 632.63146185 81 618.5 C78.92477556 603.85901666 76.9943679 589.20843044 75.19775391 574.53076172 C73.59951583 561.50036011 71.84218808 548.49804945 70 535.5 C67.92495828 520.85898956 65.99436832 506.2084339 64.19775391 491.53076172 C62.48840841 477.59450366 60.58667226 463.6912628 58.61575317 449.78979492 C56.76354748 436.70734722 55.04343379 423.61488717 53.4375 410.5 C51.85894327 397.6088963 50.13914916 384.75040632 48.25460815 371.90063477 C46.31361686 358.62312909 44.63744116 345.31801086 43 332 C41.29656822 318.14569156 39.53196308 304.3101271 37.5 290.5 C35.46803578 276.68986517 33.7037268 262.85427685 32 249 C30.27007307 234.93883077 28.48204373 220.89411996 26.4375 206.875 C24.71186978 195.03066787 23.05793938 183.18016727 21.5 171.3125 C21.39678436 170.52674591 21.29356873 169.74099182 21.18722534 168.931427 C20.008548 159.9374938 18.86165705 150.93996265 17.75 141.9375 C17.64682968 141.10216736 17.54365936 140.26683472 17.43736267 139.40618896 C16.57810739 132.44608279 16.57810739 132.44608279 16.18850708 129.2857666 C14.64530651 116.79795945 12.9400478 104.34151619 11.12011719 91.89126587 C9.49747321 80.77185309 8.06809299 69.64129035 6.76400757 58.48025513 C5.82503859 50.46021394 4.80584732 42.45936374 3.640625 34.46875 C3.52505249 33.67505005 3.40947998 32.8813501 3.29040527 32.06359863 C2.72908662 28.22625231 2.15788703 24.390649 1.57421875 20.55664062 C1.36709125 19.16277472 1.1600554 17.76889518 0.953125 16.375 C0.76911133 15.16585938 0.58509766 13.95671875 0.39550781 12.7109375 C-0.05373921 8.49578029 0 4.23902974 0 0 Z " fill="#0DA0FD" transform="translate(891,261)"/>
</svg>
